<svg xmlns="http://www.w3.org/2000/svg" viewBox="0 0 1753.02 1733.23"><g id="Layer_2" data-name="Layer 2"><g id="Layer_1-2" data-name="Layer 1"><path d="M496.57,513.08V157.5q-17.82.45-35.63.78Q478.76,79.62,496.57,0h137V352.15q48.92-4.42,97.84-9.79-18.15,75-36.31,150.26C628.93,501.37,562.75,508.7,496.57,513.08Z"/><path d="M775.59,481.39V145.55q-18.15,1-36.31,2Q757.43,73.13,775.59,0H913.34V460.71C867.43,467.64,821.51,474.71,775.59,481.39Z"/><path d="M1626.72,435.86c-45.21-81.08-90.43-155.82-135.64-226.06V418.91c-45.44-3.28-90.88-4.29-136.32-3.56V120.64q-18.16.1-36.32.36,18.16-61.57,36.32-121h145.43c37,53.69,74.07,110,111.11,170.51V0h137.06V464.89A1131.49,1131.49,0,0,0,1626.72,435.86Z"/><path d="M849.8,849.22c0,79.32-11.65,122.84-47.42,171.22-37.36,51.66-86.3,81.78-151.64,91.36-77.76,11.44-145.38-11.8-178-59.14C448.57,1019.2,438.43,976,438.44,907.4V762.88q-20.61,1-41.22,1.36,20.61-80.38,41.22-163.3c51.32-2.14,102.65-6.53,154-12.38V875.14c0,50,1.58,60.51,10.89,73.22,8.55,11.95,24.13,16.74,41.22,14.14,18.68-2.83,35-14,42.74-28.47s10.13-31.16,10.13-74V574.81c50.8-7.4,101.6-15.7,152.4-24.13Z"/><path d="M1162.65,1018.22q-35-69.45-70-136.13-3.14.48-6.27,1v145.7c-51.06,7.72-102.11,16.62-153.16,25.83V691.31q-19.83,3.63-39.64,7.32,19.82-81.35,39.64-161.8c57-9.37,114-18.38,171.08-26,76.17-10,120.49-3.32,159.36,21.28,47.49,29.3,73.9,81.73,73.9,144,0,70.19-28.75,122.46-89.41,167.52q49.39,77.34,98.78,160C1285.53,1005.26,1224.09,1010.59,1162.65,1018.22Zm-37.36-270.77c35.78-5.18,57.56-25.37,57.56-55.21,0-29-21-43.39-59.08-38.06q-18.68,2.64-37.35,5.51v93.66Q1105.86,750.27,1125.29,747.45Z"/><path d="M672.18,1725.31V1347.65q-22.45,2.63-44.93,5,22.47-84.29,44.93-171.77c56.82-8.2,113.64-17.74,170.46-27.5V1724.7Q757.41,1725,672.18,1725.31Z"/><path d="M1194.82,1723.51q-38.92-89.68-77.83-174l-7,.37v173.89q-85.18.26-170.38.59V1311.83q-22.05,3-44.09,6.13,22-90,44.09-181.24c63.44-10.77,126.88-21,190.32-29.24,84.73-10.81,134-1.54,177.28,30.11,52.83,37.79,82.2,103.85,82.2,180.74,0,86.49-32,150.59-99.45,201.29,36.6,66.07,73.2,134.41,109.81,203.65Q1297.3,1723.26,1194.82,1723.51Zm-41.56-331.88c39.8-3.12,64-26.05,64-62.38,0-35.32-23.32-54-65.72-49.73q-20.77,2.07-41.56,4.39v111.4Q1131.64,1393.36,1153.26,1391.63Z"/><path d="M1462.4,1723.32v-448q-22-1-44.09-1.5,22.05-92.83,44.09-182.15a1136.89,1136.89,0,0,1,169.54,22.4v422.51q60.54,5.4,121.08,14.12-22.47,83.68-44.94,173.59Q1585.25,1723.44,1462.4,1723.32Z"/><path d="M1265.79,251.47q13.64-49.07,27.26-96.75c-54.52,1.24-109,3.52-163.58,6.42V126.59q68.16-2.93,136.32-4.61Q1283,59.81,1300.31,0H991.09q-17.48,66.42-35,135.34l35-1.93V449.2c89.24-12.83,178.47-24.05,267.7-29.86q17.13-66.91,34.26-131.54c-54.52,2.07-109,5.85-163.58,10.66V260C1174.91,256.4,1220.35,253.44,1265.79,251.47Z"/><path d="M1557.18,651.6a986.71,986.71,0,0,1,150.06,34.5c13.7-47.17,27.41-94.11,41.12-141.4a1056.84,1056.84,0,0,0-144.58-36.17c-66.86-11.86-133.73-17.37-200.59-18.3q-19.82,73.2-39.63,149,19.82-.27,39.63,0v364.17a1174.46,1174.46,0,0,1,154,12.11v-180a960.66,960.66,0,0,1,131.38,29.89c11.92-43.1,23.85-85.72,35.77-128.14a967.32,967.32,0,0,0-167.15-40.79Z"/><path d="M310.29,1537.81q51.9,1.14,103.82.33c-26,32.64-52.83,44.84-95.16,44.29-70.09-.66-125.45-53.13-125.45-117.37,0-63.31,54.52-108.43,120.24-106.17,32,1,59.66,10.74,92.55,32.41q60-57.55,119.91-120.76c-65-47.55-136.78-63.38-158.42-68a347,347,0,0,0-54-6.08c-163.48-6.13-295.83,77-295.84,243.85,0,81.09,33.3,159.51,87,211.9,53.73,53.33,127.9,80.63,209.64,81,117.7.21,228.43-63.38,266.46-164.3,19-48.22,25.08-86.79,27.68-172.87-87.08,8.09-174.16,13.12-261.24,12.07Q328.88,1473.94,310.29,1537.81Z"/><path d="M347.1,862.64c-24.27-23.88-59.59-43.32-107.34-62.88-56-23.19-70-35.65-70-53.61,0-16.69,16.34-25.67,38.88-22.61,38.12,5.11,80.85,24.28,133,58.21q19.44-76.93,38.88-156.43c-84.72-36.94-122.83-50.49-179.63-57C86.59,554.85,5.74,598.54,5.74,700.76c0,39.47,12.39,77.49,36.87,112.61,24.28,31.09,59.59,60,107.35,83.91,56,27.19,70,36.19,70,54.4,0,16.24-16.33,25.78-38.88,22-38.11-6.6-80.85-30.4-133-79.08-13,46.08-25.92,91.67-38.88,137.21,84.72,64,122.84,79.21,179.63,89C303.12,1137.68,384,1064,384,962.66,384,923.32,371.59,890.28,347.1,862.64Z"/><path d="M327.86,0H140.1C93.4,170.62,46.7,325.25,0,466.28a1138.44,1138.44,0,0,0,150.27,34.53q7.33-31,14.68-62.56c43.59,5.88,87.17,9.57,130.75,11.48q7.35,33.45,14.69,66.59c50.79,1.94,101.58,1.28,152.37-1.27C417.79,351.79,372.83,178.69,327.86,0ZM231.38,159.32c43,1.49,79.12,35.24,88.84,79.75-59.23-1-118.45-3.93-177.68-9.33C152.26,188,188.34,157.92,231.38,159.32Zm0,199.48A88.87,88.87,0,0,1,188.91,344q42.47,4.11,85,6.1A78.6,78.6,0,0,1,231.38,358.8Zm62.72-23.64c-41.81-1.5-83.63-4.31-125.44-8.71a113,113,0,0,1-20.94-33.78c55.77,6.07,111.55,9.45,167.33,10.76A95.07,95.07,0,0,1,294.1,335.16ZM320,287.66c-59.11-1.2-118.21-4.6-177.32-10.92a107.22,107.22,0,0,1-2.78-24.17c0-2.57.12-5.1.31-7.61,60.75,5.94,121.51,9.09,182.27,10.14.18,2.62.3,5.25.3,7.92A109.58,109.58,0,0,1,320,287.66Z"/></g></g></svg>